<svg xmlns="http://www.w3.org/2000/svg" viewBox="0 0 64 64">
  <defs>
    <linearGradient id="shieldGradient" x1="12" y1="6" x2="52" y2="58" gradientUnits="userSpaceOnUse">
      <stop offset="0" stop-color="#fb7185" />
      <stop offset="1" stop-color="#f43f5e" />
    </linearGradient>
    <linearGradient id="shieldHighlight" x1="18" y1="10" x2="34" y2="48" gradientUnits="userSpaceOnUse">
      <stop offset="0" stop-color="#fff" stop-opacity="0.6" />
      <stop offset="1" stop-color="#fff" stop-opacity="0" />
    </linearGradient>
  </defs>
  <path d="M32 4 10 12v18c0 15.32 10.18 29.39 24 34 13.82-4.61 24-18.68 24-34V12L32 4z" fill="url(#shieldGradient)" />
  <path d="M32 9.34 15 15.52v13.5c0 12.29 7.82 23.46 17 27 9.18-3.54 17-14.71 17-27v-13.5L32 9.34z" fill="#2b0912" opacity="0.28" />
  <path d="M28.64 12.58c-5.22 2.18-10.32 3.9-15.3 5.16-.87.22-1.34 1.16-.96 1.98 4.29 9.33 10.97 16.86 19.62 21.87a2 2 0 0 0 1.98 0c8.65-5.01 15.33-12.54 19.62-21.87.38-.82-.09-1.76-.96-1.98-4.98-1.26-10.08-2.98-15.3-5.16a2 2 0 0 0-1.7 0z" fill="url(#shieldHighlight)" />
</svg>
